<svg width="202" height="154" viewBox="0 0 202 154" fill="none" xmlns="http://www.w3.org/2000/svg">
<path d="M171.006 12.7747C157.909 6.759 144.087 2.46787 129.887 0.00877099C129.758 -0.0128989 129.626 0.00581665 129.508 0.0623449C129.391 0.118873 129.294 0.210438 129.23 0.324448C127.45 3.48122 125.481 7.61027 124.105 10.8428C108.798 8.52146 93.2293 8.52146 77.9228 10.8428C76.3942 7.23884 74.6575 3.7268 72.7214 0.324448C72.658 0.210438 72.5608 0.118873 72.4432 0.0623449C72.3257 0.00581665 72.1935 -0.0128989 72.0649 0.00877099C57.8619 2.45842 44.0377 6.75163 30.9457 12.7747C30.8331 12.8166 30.7391 12.8972 30.6806 13.002C4.49659 52.1334 -2.68696 90.305 0.835374 127.997C0.860623 128.182 0.948997 128.338 1.1005 128.464C16.3509 139.755 33.4046 148.38 51.5368 153.971C51.6649 154.011 51.8025 154.01 51.9296 153.967C52.0567 153.923 52.1668 153.841 52.2438 153.731C56.1407 148.427 59.5831 142.834 62.571 136.949C62.6331 136.828 62.6543 136.69 62.6316 136.556C62.6088 136.422 62.5433 136.298 62.4447 136.204L62.2175 136.066C56.7807 133.969 51.5132 131.457 46.4616 128.552C46.3206 128.473 46.2158 128.341 46.1688 128.186C46.1217 128.031 46.1362 127.864 46.2091 127.719L46.3985 127.479C47.4674 126.679 48.5111 125.859 49.5295 125.017C49.6187 124.945 49.7258 124.899 49.8392 124.883C49.9526 124.868 50.0681 124.883 50.1734 124.928C83.2379 140.03 119.029 140.03 151.69 124.928C151.798 124.878 151.919 124.86 152.037 124.876C152.156 124.891 152.267 124.94 152.359 125.017C153.377 125.859 154.421 126.679 155.49 127.479C155.579 127.54 155.651 127.622 155.699 127.719C155.747 127.815 155.769 127.922 155.764 128.03C155.759 128.137 155.727 128.242 155.67 128.333C155.613 128.425 155.534 128.5 155.44 128.552C150.41 131.503 145.134 134.013 139.671 136.053C139.584 136.084 139.505 136.135 139.44 136.2C139.374 136.266 139.324 136.345 139.292 136.432C139.262 136.516 139.249 136.605 139.256 136.695C139.262 136.784 139.288 136.871 139.33 136.949C142.36 142.821 145.832 148.427 149.645 153.731C149.722 153.841 149.832 153.923 149.959 153.967C150.086 154.01 150.224 154.011 150.352 153.971C168.52 148.411 185.603 139.784 200.864 128.464C200.94 128.41 201.003 128.341 201.049 128.26C201.094 128.179 201.122 128.089 201.129 127.997C205.346 84.4208 194.072 46.5648 171.258 13.0147C171.239 12.9574 171.205 12.9057 171.161 12.864C171.117 12.8222 171.064 12.7916 171.006 12.7747ZM67.5073 105.041C57.5463 105.041 49.3527 95.8988 49.3527 84.686C49.3527 73.4731 57.3948 64.3185 67.5073 64.3185C77.6956 64.3185 85.8134 73.5363 85.6619 84.686C85.6619 95.8988 77.6198 105.041 67.5073 105.041ZM134.621 105.041C124.673 105.041 116.467 95.8988 116.467 84.686C116.467 73.4731 124.509 64.3185 134.621 64.3185C144.809 64.3185 152.94 73.5363 152.776 84.686C152.776 95.8988 144.809 105.041 134.621 105.041Z" fill="#5865F2"/>
</svg>
