<svg width="349" height="347" viewBox="0 0 349 347" fill="none" xmlns="http://www.w3.org/2000/svg">
<path d="M187.193 0C208.589 2.55145e-07 229.777 4.21444 249.544 12.4023C269.311 20.5902 287.272 32.5915 302.401 47.7207C317.531 62.8499 329.532 80.8109 337.72 100.578C343.464 114.447 347.249 129.014 348.999 143.862H271.528C262.542 106.09 228.583 77.9972 188.061 77.9971C187.771 77.9971 187.482 78.0001 187.193 78.0029V0Z" fill="#C084FC"/>
<path d="M162.062 104.002C161.852 104 161.642 103.998 161.432 103.998C115.123 103.998 77.582 140.653 77.582 185.868C77.5822 231.083 115.123 267.737 161.432 267.737C207.741 267.737 245.282 231.083 245.282 185.868C245.282 179.231 244.473 172.777 242.946 166.598H323.023C323.749 172.785 324.123 179.08 324.123 185.461C324.123 274.486 251.565 346.655 162.062 346.655C72.5576 346.655 0.000232206 274.486 0 185.461C0.00014786 96.4356 72.5575 24.2656 162.062 24.2656V104.002Z" fill="white"/>
</svg>
