<svg width="1288" height="281" viewBox="0 0 1288 281" fill="none" xmlns="http://www.w3.org/2000/svg">
<g clip-path="url(#clip0_70_2)">
<path d="M999 200V279H957V60.0001H996V83C998.38 81.06 999.79 77.8101 1001.97 75.4701C1027.07 48.68 1069.43 51.03 1092.97 78.53C1119.56 109.6 1118.43 174.57 1089.4 203.9C1063.08 230.48 1023.17 227.73 999 200ZM1034.5 89.57C979.37 88.95 988.9 204.76 1045.22 187.72C1079.52 177.34 1079.77 90.08 1034.5 89.57Z" fill="#C084FC"/>
<path d="M926 219H885.5L878.5 202.02C847.17 236.91 771.75 226.88 777.12 170.62C781.4 125.81 834.03 128.89 866.21 118.71C875.69 115.71 877.57 116.36 875.55 104.94C873.73 94.63 868.19 90.91 858.39 89.1C841.08 85.91 825.07 89.7 819.41 108.07L782 101.99C787.42 73.08 810.18 58.68 838.46 56.94C861.64 55.52 899.1 56.52 911.39 80.1C922.52 101.44 915.01 161.58 917.02 188.47C917.81 199.04 921.65 209.45 926.01 218.98L926 219ZM876 143C864.64 146.03 852.67 147.67 841.37 150.87C827.53 154.79 814.62 161.29 820.23 178.27C828.04 201.91 864.73 194.45 873.19 174.68C874.16 172.42 876.01 165.58 876.01 163.5V143H876Z" fill="#C084FC"/>
<path d="M416.79 57.2899C473.92 51.4699 514.6 88.8599 511.04 146.54C507.35 206.48 447.2 237.62 393.31 215.17C322.17 185.53 335.67 65.5399 416.78 57.2799L416.79 57.2899ZM421.76 91.2599C379.13 97.4199 378.75 184.04 424.46 188.03C462.21 191.33 473.5 152.73 466.53 121.96C461.66 100.49 443.69 88.0799 421.76 91.2599Z" fill="white"/>
<path d="M125.5 60L164.51 167.01L204 60H247L186 218.5V279H144V217.5L83 60H125.5Z" fill="white"/>
<path d="M705.11 104.88C700.97 86.09 679.49 85.25 663.61 87.11C646.13 89.15 639.01 103.39 658.48 111.02C690.93 123.75 751.83 121.31 750.9 170.39C749.71 233.34 636.62 239.39 608.83 189.67C607.22 186.78 600.59 174.43 604.67 173.16L643.56 167.26C647.51 177.52 652.26 186.37 663.33 190.18C673.74 193.76 693.76 193.15 702.94 186.44C710.49 180.91 711.04 169.79 702.71 164.8C666.95 152.92 596.89 150.34 609.29 94.78C617.38 58.53 659.98 54.76 690.5 57.02C716.68 58.96 737.34 71.53 744.96 97.44L705.12 104.89L705.11 104.88Z" fill="white"/>
<path d="M74 0V32H40V248H74V281H0V0H74Z" fill="white"/>
<path d="M1288 0V281H1214V248H1248V32H1214V0H1288Z" fill="white"/>
<path d="M314 0H272V219H314V0Z" fill="white"/>
<path d="M1187 60H1145V219H1187V60Z" fill="#C084FC"/>
<path d="M581 0C580.29 12.88 581.97 26.72 580.98 39.48C580.04 51.63 575.58 64.62 574.99 76.99L543.93 76.57L543.17 75.33C542.43 63.14 537.26 50.27 536.12 38.38C534.94 26.06 536.74 12.46 536 0L581 0Z" fill="#C084FC"/>
<path d="M1187 0H1145V38H1187V0Z" fill="#C084FC"/>
</g>
<defs>
<clipPath id="clip0_70_2">
<rect width="1288" height="281" fill="white"/>
</clipPath>
</defs>
</svg>
